<mxfile host="www.draw.io" modified="2019-10-24T05:27:58.987Z" agent="Mozilla/5.0 (X11; Linux x86_64) AppleWebKit/537.36 (KHTML, like Gecko) Chrome/71.0.3578.98 Safari/537.36" etag="mQoem3KxdiOml8mHsjtf" version="12.1.4" type="github" pages="1">
  <diagram id="z8MH2jhFX24f1HsS23_0" name="페이지-1">
    <mxGraphModel dx="1422" dy="802" grid="1" gridSize="10" guides="1" tooltips="1" connect="1" arrows="1" fold="1" page="1" pageScale="1" pageWidth="1169" pageHeight="827" math="0" shadow="0">
      <root>
        <mxCell id="0"/>
        <mxCell id="1" parent="0"/>
        <mxCell id="1nAjEGyVLZItmqGtWE9r-61" value="" style="rounded=0;whiteSpace=wrap;html=1;fillColor=#FFFFFF;" parent="1" vertex="1">
          <mxGeometry x="40" y="20" width="550" height="590" as="geometry"/>
        </mxCell>
        <mxCell id="1nAjEGyVLZItmqGtWE9r-1" value="&lt;font style=&quot;font-size: 15px&quot;&gt;상품 명&lt;/font&gt;" style="text;html=1;strokeColor=none;fillColor=none;align=center;verticalAlign=middle;whiteSpace=wrap;rounded=0;" parent="1" vertex="1">
          <mxGeometry x="50" y="30" width="140" height="20" as="geometry"/>
        </mxCell>
        <mxCell id="1nAjEGyVLZItmqGtWE9r-7" value="&lt;span style=&quot;font-size: 15px&quot;&gt;상품 유형&lt;/span&gt;" style="text;html=1;strokeColor=none;fillColor=none;align=center;verticalAlign=middle;whiteSpace=wrap;rounded=0;" parent="1" vertex="1">
          <mxGeometry x="50" y="170" width="140" height="20" as="geometry"/>
        </mxCell>
        <mxCell id="1nAjEGyVLZItmqGtWE9r-8" value="&lt;span style=&quot;font-size: 15px&quot;&gt;태그&lt;br&gt;&lt;/span&gt;" style="text;html=1;strokeColor=none;fillColor=none;align=center;verticalAlign=middle;whiteSpace=wrap;rounded=0;" parent="1" vertex="1">
          <mxGeometry x="50" y="60" width="140" height="20" as="geometry"/>
        </mxCell>
        <mxCell id="1nAjEGyVLZItmqGtWE9r-9" value="&lt;span style=&quot;font-size: 15px&quot;&gt;갱신시점&lt;/span&gt;" style="text;html=1;strokeColor=none;fillColor=none;align=center;verticalAlign=middle;whiteSpace=wrap;rounded=0;" parent="1" vertex="1">
          <mxGeometry x="50" y="90" width="140" height="20" as="geometry"/>
        </mxCell>
        <mxCell id="1nAjEGyVLZItmqGtWE9r-10" value="&lt;span style=&quot;font-size: 15px&quot;&gt;공개구분&lt;/span&gt;" style="text;html=1;strokeColor=none;fillColor=none;align=center;verticalAlign=middle;whiteSpace=wrap;rounded=0;" parent="1" vertex="1">
          <mxGeometry x="50" y="120" width="140" height="20" as="geometry"/>
        </mxCell>
        <mxCell id="1nAjEGyVLZItmqGtWE9r-14" value="&lt;span style=&quot;font-size: 15px&quot;&gt;상품정보&lt;/span&gt;" style="text;html=1;strokeColor=none;fillColor=none;align=center;verticalAlign=middle;whiteSpace=wrap;rounded=0;" parent="1" vertex="1">
          <mxGeometry x="50" y="220" width="140" height="20" as="geometry"/>
        </mxCell>
        <mxCell id="1nAjEGyVLZItmqGtWE9r-15" value="" style="rounded=0;whiteSpace=wrap;html=1;" parent="1" vertex="1">
          <mxGeometry x="230" y="30" width="180" height="20" as="geometry"/>
        </mxCell>
        <mxCell id="1nAjEGyVLZItmqGtWE9r-16" value="" style="rounded=0;whiteSpace=wrap;html=1;" parent="1" vertex="1">
          <mxGeometry x="230" y="170" width="180" height="20" as="geometry"/>
        </mxCell>
        <mxCell id="1nAjEGyVLZItmqGtWE9r-18" value="" style="rounded=0;whiteSpace=wrap;html=1;" parent="1" vertex="1">
          <mxGeometry x="230" y="60" width="180" height="20" as="geometry"/>
        </mxCell>
        <mxCell id="1nAjEGyVLZItmqGtWE9r-19" value="" style="rounded=0;whiteSpace=wrap;html=1;" parent="1" vertex="1">
          <mxGeometry x="230" y="90" width="180" height="20" as="geometry"/>
        </mxCell>
        <mxCell id="1nAjEGyVLZItmqGtWE9r-20" value="" style="rounded=0;whiteSpace=wrap;html=1;" parent="1" vertex="1">
          <mxGeometry x="230" y="120" width="180" height="20" as="geometry"/>
        </mxCell>
        <mxCell id="1nAjEGyVLZItmqGtWE9r-22" value="" style="triangle;whiteSpace=wrap;html=1;rotation=90;fillColor=#000000;" parent="1" vertex="1">
          <mxGeometry x="390" y="170" width="15" height="20" as="geometry"/>
        </mxCell>
        <mxCell id="1nAjEGyVLZItmqGtWE9r-23" value="" style="endArrow=none;html=1;exitX=1;exitY=0.5;exitDx=0;exitDy=0;" parent="1" source="1nAjEGyVLZItmqGtWE9r-16" edge="1">
          <mxGeometry width="50" height="50" relative="1" as="geometry">
            <mxPoint x="450" y="220" as="sourcePoint"/>
            <mxPoint x="430" y="180" as="targetPoint"/>
          </mxGeometry>
        </mxCell>
        <mxCell id="1nAjEGyVLZItmqGtWE9r-25" value="#AA" style="rounded=1;whiteSpace=wrap;html=1;fillColor=#FFFFFF;" parent="1" vertex="1">
          <mxGeometry x="240" y="62.5" width="40" height="15" as="geometry"/>
        </mxCell>
        <mxCell id="1nAjEGyVLZItmqGtWE9r-27" value="#BB" style="rounded=1;whiteSpace=wrap;html=1;fillColor=#FFFFFF;" parent="1" vertex="1">
          <mxGeometry x="290" y="62.5" width="40" height="15" as="geometry"/>
        </mxCell>
        <mxCell id="1nAjEGyVLZItmqGtWE9r-28" value="&lt;ul&gt;&lt;li&gt;Data&lt;br&gt;&lt;/li&gt;&lt;li&gt;MLFlow&lt;/li&gt;&lt;li&gt;AutoML&lt;/li&gt;&lt;li&gt;Visualization&lt;/li&gt;&lt;/ul&gt;" style="text;html=1;strokeColor=none;fillColor=none;align=left;verticalAlign=middle;whiteSpace=wrap;rounded=0;" parent="1" vertex="1">
          <mxGeometry x="430" y="150" width="110" height="60" as="geometry"/>
        </mxCell>
        <mxCell id="1nAjEGyVLZItmqGtWE9r-29" value="" style="triangle;whiteSpace=wrap;html=1;rotation=90;fillColor=#000000;" parent="1" vertex="1">
          <mxGeometry x="390" y="120" width="15" height="20" as="geometry"/>
        </mxCell>
        <mxCell id="1nAjEGyVLZItmqGtWE9r-30" value="&lt;ul&gt;&lt;li&gt;공개&lt;/li&gt;&lt;li&gt;구독&lt;/li&gt;&lt;/ul&gt;" style="text;html=1;strokeColor=none;fillColor=none;align=left;verticalAlign=middle;whiteSpace=wrap;rounded=0;" parent="1" vertex="1">
          <mxGeometry x="430" y="100" width="110" height="60" as="geometry"/>
        </mxCell>
        <mxCell id="1nAjEGyVLZItmqGtWE9r-31" value="" style="endArrow=none;html=1;exitX=1;exitY=0.5;exitDx=0;exitDy=0;" parent="1" edge="1">
          <mxGeometry width="50" height="50" relative="1" as="geometry">
            <mxPoint x="409.9999999999998" y="130" as="sourcePoint"/>
            <mxPoint x="430" y="130" as="targetPoint"/>
          </mxGeometry>
        </mxCell>
        <mxCell id="1nAjEGyVLZItmqGtWE9r-34" value="" style="rounded=0;whiteSpace=wrap;html=1;fillColor=#FFFFFF;" parent="1" vertex="1">
          <mxGeometry x="90" y="260" width="460" height="330" as="geometry"/>
        </mxCell>
        <mxCell id="1nAjEGyVLZItmqGtWE9r-35" value="&lt;ul&gt;&lt;li&gt;DB1&lt;/li&gt;&lt;ul&gt;&lt;li&gt;TBL1&lt;/li&gt;&lt;li&gt;TBL2&lt;/li&gt;&lt;li&gt;TBL3&lt;/li&gt;&lt;/ul&gt;&lt;li&gt;DB2&lt;/li&gt;&lt;ul&gt;&lt;li&gt;TBL1&lt;/li&gt;&lt;li&gt;TBL2&lt;/li&gt;&lt;/ul&gt;&lt;/ul&gt;" style="rounded=0;whiteSpace=wrap;html=1;fillColor=#FFFFFF;align=left;spacingLeft=-21;" parent="1" vertex="1">
          <mxGeometry x="110" y="284" width="120" height="140" as="geometry"/>
        </mxCell>
        <mxCell id="1nAjEGyVLZItmqGtWE9r-41" value="&lt;table border=&quot;1&quot; width=&quot;100%&quot; style=&quot;width: 100% ; height: 100% ; border-collapse: collapse&quot;&gt;&lt;tbody&gt;&lt;tr&gt;&lt;td align=&quot;center&quot;&gt;name&lt;/td&gt;&lt;td align=&quot;center&quot;&gt;type&lt;/td&gt;&lt;td align=&quot;center&quot;&gt;comment&lt;/td&gt;&lt;/tr&gt;&lt;tr&gt;&lt;td align=&quot;center&quot;&gt;AA&lt;/td&gt;&lt;td align=&quot;center&quot;&gt;String&lt;/td&gt;&lt;td align=&quot;center&quot;&gt;Blah Blah&lt;/td&gt;&lt;/tr&gt;&lt;tr&gt;&lt;td align=&quot;center&quot;&gt;BB&lt;/td&gt;&lt;td align=&quot;center&quot;&gt;int&lt;/td&gt;&lt;td align=&quot;center&quot;&gt;Count Col&lt;/td&gt;&lt;/tr&gt;&lt;/tbody&gt;&lt;/table&gt;" style="text;html=1;strokeColor=none;fillColor=none;overflow=fill;" parent="1" vertex="1">
          <mxGeometry x="277.5" y="284" width="240" height="140" as="geometry"/>
        </mxCell>
        <mxCell id="Im5WAV0djMjGg8I8kXj9-2" value="View list" style="text;html=1;strokeColor=none;fillColor=none;align=center;verticalAlign=middle;whiteSpace=wrap;rounded=0;" vertex="1" parent="1">
          <mxGeometry x="110" y="277" width="60" height="35" as="geometry"/>
        </mxCell>
        <mxCell id="Im5WAV0djMjGg8I8kXj9-3" value="&lt;table border=&quot;1&quot; width=&quot;100%&quot; style=&quot;width: 100% ; height: 100% ; border-collapse: collapse&quot;&gt;&lt;tbody&gt;&lt;tr&gt;&lt;td align=&quot;center&quot;&gt;AA&lt;/td&gt;&lt;td align=&quot;center&quot;&gt;BB&lt;/td&gt;&lt;td align=&quot;center&quot;&gt;&lt;span style=&quot;background-color: rgb(255 , 255 , 255)&quot;&gt;CC&lt;/span&gt;&lt;/td&gt;&lt;/tr&gt;&lt;tr&gt;&lt;td align=&quot;center&quot;&gt;testValue1&lt;/td&gt;&lt;td align=&quot;center&quot;&gt;1234&lt;/td&gt;&lt;td align=&quot;center&quot;&gt;2019-09-11&lt;/td&gt;&lt;/tr&gt;&lt;tr&gt;&lt;td align=&quot;center&quot;&gt;testValue2&lt;/td&gt;&lt;td align=&quot;center&quot;&gt;4321&lt;/td&gt;&lt;td align=&quot;center&quot;&gt;2019-09-12&lt;br&gt;&lt;/td&gt;&lt;/tr&gt;&lt;/tbody&gt;&lt;/table&gt;" style="text;html=1;strokeColor=none;fillColor=none;overflow=fill;" vertex="1" parent="1">
          <mxGeometry x="110" y="490" width="410" height="90" as="geometry"/>
        </mxCell>
        <mxCell id="Im5WAV0djMjGg8I8kXj9-4" value="&lt;span style=&quot;font-size: 15px&quot;&gt;응답 예시 작성&lt;/span&gt;" style="text;html=1;strokeColor=none;fillColor=none;align=center;verticalAlign=middle;whiteSpace=wrap;rounded=0;" vertex="1" parent="1">
          <mxGeometry x="110" y="452" width="140" height="20" as="geometry"/>
        </mxCell>
        <mxCell id="Im5WAV0djMjGg8I8kXj9-5" value="" style="endArrow=none;dashed=1;html=1;entryX=0.626;entryY=0.512;entryDx=0;entryDy=0;entryPerimeter=0;" edge="1" parent="1" target="1nAjEGyVLZItmqGtWE9r-34">
          <mxGeometry width="50" height="50" relative="1" as="geometry">
            <mxPoint x="378" y="445" as="sourcePoint"/>
            <mxPoint x="430" y="430" as="targetPoint"/>
          </mxGeometry>
        </mxCell>
      </root>
    </mxGraphModel>
  </diagram>
</mxfile>
